<svg width="960" height="1180" viewBox="0 0 960 1180" fill="none" xmlns="http://www.w3.org/2000/svg">
<rect width="960" height="1180" rx="48" fill="#0B0A0D"/>
<rect x="24" y="24" width="912" height="1132" rx="36" fill="url(#bg)"/>
<circle cx="703" cy="243" r="186" fill="url(#glow1)" opacity="0.8"/>
<circle cx="294" cy="911" r="218" fill="url(#glow2)" opacity="0.7"/>
<path d="M510 183C651 236 736 372 736 533C736 737 581 903 382 903C294 903 217 869 160 809" stroke="url(#stroke1)" stroke-width="2.5" stroke-linecap="round"/>
<path d="M508 255C611 299 673 399 673 520C673 678 553 805 403 805C334 805 273 778 226 731" stroke="url(#stroke2)" stroke-width="2" stroke-linecap="round" stroke-dasharray="10 12"/>
<path d="M480 277C590 277 679 366 679 476C679 557 631 627 561 659" stroke="url(#stroke3)" stroke-width="1.5" stroke-linecap="round" opacity="0.8"/>
<rect x="146" y="119" width="208" height="48" rx="24" fill="#111015" stroke="#3B3118"/>
<text x="250" y="149" text-anchor="middle" fill="#E6DAB6" font-family="Inter, Arial, sans-serif" font-size="18" font-weight="600">Plataforma guiada</text>
<g opacity="0.95">
<path d="M459 316C537 316 600 381 600 461V687C600 770 533 837 450 837C367 837 300 770 300 687V525C300 460 352 408 417 408C482 408 534 460 534 525V676C534 724 495 763 447 763C399 763 360 724 360 676V520" stroke="url(#figure)" stroke-width="18" stroke-linecap="round"/>
<path d="M366 498C399 517 427 525 451 525C482 525 516 513 553 489" stroke="#D9C586" stroke-width="10" stroke-linecap="round" opacity="0.85"/>
<path d="M397 355C414 337 435 328 460 328C484 328 506 337 523 355" stroke="#F0E5C1" stroke-width="10" stroke-linecap="round"/>
</g>
<rect x="602" y="756" width="224" height="158" rx="28" fill="#151319" stroke="#4D3F1D"/>
<text x="714" y="806" text-anchor="middle" fill="#C8A64D" font-family="Inter, Arial, sans-serif" font-size="19" font-weight="700">Clareza no proximo passo</text>
<text x="714" y="840" text-anchor="middle" fill="#E6E0D0" font-family="Inter, Arial, sans-serif" font-size="15">Decisao segura</text>
<text x="714" y="868" text-anchor="middle" fill="#A7A095" font-family="Inter, Arial, sans-serif" font-size="15">Jornada elegante</text>
<circle cx="655" cy="974" r="6" fill="#C9A84C"/>
<circle cx="690" cy="974" r="6" fill="#C9A84C" opacity="0.7"/>
<circle cx="725" cy="974" r="6" fill="#C9A84C" opacity="0.45"/>
<defs>
<linearGradient id="bg" x1="480" y1="24" x2="480" y2="1156" gradientUnits="userSpaceOnUse">
<stop stop-color="#121015"/>
<stop offset="1" stop-color="#09080B"/>
</linearGradient>
<radialGradient id="glow1" cx="0" cy="0" r="1" gradientUnits="userSpaceOnUse" gradientTransform="translate(703 243) rotate(90) scale(186)">
<stop stop-color="#C9A84C" stop-opacity="0.34"/>
<stop offset="1" stop-color="#C9A84C" stop-opacity="0"/>
</radialGradient>
<radialGradient id="glow2" cx="0" cy="0" r="1" gradientUnits="userSpaceOnUse" gradientTransform="translate(294 911) rotate(90) scale(218)">
<stop stop-color="#7E5D1C" stop-opacity="0.36"/>
<stop offset="1" stop-color="#7E5D1C" stop-opacity="0"/>
</radialGradient>
<linearGradient id="stroke1" x1="160" y1="183" x2="736" y2="903" gradientUnits="userSpaceOnUse">
<stop stop-color="#8D6F28"/>
<stop offset="1" stop-color="#E2C97B"/>
</linearGradient>
<linearGradient id="stroke2" x1="226" y1="255" x2="673" y2="805" gradientUnits="userSpaceOnUse">
<stop stop-color="#E2C97B"/>
<stop offset="1" stop-color="#7D6223"/>
</linearGradient>
<linearGradient id="stroke3" x1="480" y1="277" x2="679" y2="659" gradientUnits="userSpaceOnUse">
<stop stop-color="#F6E7BA"/>
<stop offset="1" stop-color="#A68430"/>
</linearGradient>
<linearGradient id="figure" x1="450" y1="316" x2="450" y2="837" gradientUnits="userSpaceOnUse">
<stop stop-color="#F0E5C1"/>
<stop offset="0.5" stop-color="#D9C586"/>
<stop offset="1" stop-color="#A27E2A"/>
</linearGradient>
</defs>
</svg>
