<svg width="960" height="960" viewBox="0 0 960 960" fill="none" xmlns="http://www.w3.org/2000/svg">
<rect width="960" height="960" rx="44" fill="#0D0B10"/>
<rect x="30" y="30" width="900" height="900" rx="32" fill="url(#bg)"/>
<circle cx="671" cy="246" r="164" fill="url(#glow)"/>
<rect x="164" y="170" width="632" height="620" rx="28" fill="#15121A" stroke="#4A3C18"/>
<rect x="204" y="216" width="220" height="26" rx="13" fill="#2A2416"/>
<rect x="204" y="266" width="316" height="18" rx="9" fill="#3B3120"/>
<rect x="204" y="300" width="260" height="18" rx="9" fill="#2A251E"/>
<rect x="204" y="372" width="552" height="190" rx="26" fill="#1B171E" stroke="#3B311F"/>
<path d="M361 530C446 479 493 420 493 351C493 307 462 278 418 278C373 278 336 307 336 351C336 419 381 479 468 530C420 548 388 591 388 643C388 715 443 772 515 772C587 772 642 715 642 643C642 560 583 512 491 512" stroke="url(#spiral)" stroke-width="14" stroke-linecap="round"/>
<rect x="562" y="220" width="194" height="84" rx="22" fill="#1D1820" stroke="#4C3F1F"/>
<text x="659" y="255" text-anchor="middle" fill="#D9C586" font-family="Inter, Arial, sans-serif" font-size="18" font-weight="700">Seguranca emocional</text>
<text x="659" y="283" text-anchor="middle" fill="#A9A293" font-family="Inter, Arial, sans-serif" font-size="14">Mensagem clara e acolhedora</text>
<rect x="540" y="614" width="186" height="100" rx="24" fill="#17131A" stroke="#4C3F1F"/>
<text x="633" y="654" text-anchor="middle" fill="#EADAA6" font-family="Inter, Arial, sans-serif" font-size="15" font-weight="700">Primeiro clique sem duvida</text>
<text x="633" y="682" text-anchor="middle" fill="#9D978A" font-family="Inter, Arial, sans-serif" font-size="13">CTA bem definido</text>
<defs>
<linearGradient id="bg" x1="480" y1="30" x2="480" y2="930" gradientUnits="userSpaceOnUse">
<stop stop-color="#130F16"/>
<stop offset="1" stop-color="#09080B"/>
</linearGradient>
<radialGradient id="glow" cx="0" cy="0" r="1" gradientUnits="userSpaceOnUse" gradientTransform="translate(671 246) rotate(90) scale(164)">
<stop stop-color="#C9A84C" stop-opacity="0.28"/>
<stop offset="1" stop-color="#C9A84C" stop-opacity="0"/>
</radialGradient>
<linearGradient id="spiral" x1="489" y1="278" x2="489" y2="772" gradientUnits="userSpaceOnUse">
<stop stop-color="#F0E5C1"/>
<stop offset="0.5" stop-color="#D2B96D"/>
<stop offset="1" stop-color="#9F7C28"/>
</linearGradient>
</defs>
</svg>
