<svg xmlns="http://www.w3.org/2000/svg" width="512" height="512" viewBox="0 0 512 512">
  <defs>
    <radialGradient id="g" cx="30%" cy="25%" r="80%">
      <stop offset="0%" stop-color="#DFC06A" stop-opacity="0.55"/>
      <stop offset="35%" stop-color="#C9A84C" stop-opacity="0.18"/>
      <stop offset="100%" stop-color="#0A0A0A" stop-opacity="0"/>
    </radialGradient>
    <linearGradient id="s" x1="0" y1="0" x2="1" y2="1">
      <stop offset="0%" stop-color="#DFC06A"/>
      <stop offset="60%" stop-color="#C9A84C"/>
      <stop offset="100%" stop-color="#A8893D"/>
    </linearGradient>
    <filter id="glow" x="-30%" y="-30%" width="160%" height="160%">
      <feGaussianBlur stdDeviation="3.2" result="b"/>
      <feColorMatrix in="b" type="matrix" values="
        1 0 0 0 0
        0 1 0 0 0
        0 0 1 0 0
        0 0 0 0.55 0" result="c"/>
      <feMerge>
        <feMergeNode in="c"/>
        <feMergeNode in="SourceGraphic"/>
      </feMerge>
    </filter>
  </defs>
  <rect width="512" height="512" fill="url(#g)"/>
  <g filter="url(#glow)" fill="none" stroke="url(#s)" stroke-width="10" stroke-linecap="round" stroke-linejoin="round">
    <path d="M326 122c-48-28-110-18-148 26-44 50-36 126 16 168 48 38 118 30 156-18 34-42 28-102-14-136-38-30-94-24-124 14-26 32-22 78 10 104 28 22 68 18 90-10 18-24 16-58-8-78-20-16-50-14-66 8-12 16-10 38 6 50 12 10 30 8 40-6"/>
    <path d="M340 108c-56-34-132-24-178 28-52 60-44 150 20 200 58 46 144 38 190-22 42-52 36-126-18-168-50-40-122-32-160 18-34 42-30 104 12 138 36 30 90 26 122-14"/>
  </g>
  <circle cx="256" cy="256" r="3" fill="#C9A84C" opacity="0.85"/>
</svg>

