<svg width="960" height="960" viewBox="0 0 960 960" fill="none" xmlns="http://www.w3.org/2000/svg">
<rect width="960" height="960" rx="44" fill="#0D0B10"/>
<rect x="30" y="30" width="900" height="900" rx="32" fill="url(#bg)"/>
<circle cx="732" cy="700" r="186" fill="url(#glow)"/>
<rect x="160" y="158" width="640" height="644" rx="34" fill="#151219" stroke="#4A3C18"/>
<circle cx="322" cy="328" r="74" fill="#1D1820" stroke="#4C3F1F"/>
<circle cx="482" cy="278" r="56" fill="#1D1820" stroke="#4C3F1F"/>
<circle cx="634" cy="350" r="68" fill="#1D1820" stroke="#4C3F1F"/>
<path d="M322 314C345 314 364 333 364 356V378H280V356C280 333 299 314 322 314Z" fill="url(#avatar)"/>
<path d="M482 266C501 266 516 281 516 300V316H448V300C448 281 463 266 482 266Z" fill="url(#avatar)"/>
<path d="M634 334C656 334 674 352 674 374V398H594V374C594 352 612 334 634 334Z" fill="url(#avatar)"/>
<path d="M322 410C388 410 439 444 474 512C504 568 552 598 618 598" stroke="url(#community)" stroke-width="16" stroke-linecap="round"/>
<path d="M633 575C658 575 679 596 679 621V670H587V621C587 596 608 575 633 575Z" fill="url(#avatar)"/>
<rect x="236" y="644" width="246" height="88" rx="22" fill="#18141B" stroke="#4C3F1F"/>
<text x="359" y="678" text-anchor="middle" fill="#EADAA6" font-family="Inter, Arial, sans-serif" font-size="16" font-weight="700">Comunidade privada</text>
<text x="359" y="706" text-anchor="middle" fill="#A9A293" font-family="Inter, Arial, sans-serif" font-size="13">Troca segura e acolhedora</text>
<rect x="566" y="186" width="170" height="80" rx="22" fill="#18141B" stroke="#4C3F1F"/>
<text x="651" y="220" text-anchor="middle" fill="#D9C586" font-family="Inter, Arial, sans-serif" font-size="16" font-weight="700">Pertencimento</text>
<text x="651" y="248" text-anchor="middle" fill="#A9A293" font-family="Inter, Arial, sans-serif" font-size="13">Sem julgamento</text>
<defs>
<linearGradient id="bg" x1="480" y1="30" x2="480" y2="930" gradientUnits="userSpaceOnUse">
<stop stop-color="#130F16"/>
<stop offset="1" stop-color="#09080B"/>
</linearGradient>
<radialGradient id="glow" cx="0" cy="0" r="1" gradientUnits="userSpaceOnUse" gradientTransform="translate(732 700) rotate(90) scale(186)">
<stop stop-color="#C9A84C" stop-opacity="0.22"/>
<stop offset="1" stop-color="#C9A84C" stop-opacity="0"/>
</radialGradient>
<linearGradient id="community" x1="322" y1="410" x2="618" y2="598" gradientUnits="userSpaceOnUse">
<stop stop-color="#F0E5C1"/>
<stop offset="0.5" stop-color="#D2B96D"/>
<stop offset="1" stop-color="#9F7C28"/>
</linearGradient>
<linearGradient id="avatar" x1="477" y1="266" x2="477" y2="670" gradientUnits="userSpaceOnUse">
<stop stop-color="#F0E5C1"/>
<stop offset="1" stop-color="#A68430"/>
</linearGradient>
</defs>
</svg>
